<svg width="26" height="27" viewBox="0 0 26 27" fill="none" xmlns="http://www.w3.org/2000/svg">
<path d="M8.56667 15.8667C9.78889 15.8889 10.8333 15.4722 11.7 14.6167C12.5667 13.7611 13 12.7111 13 11.4667C13 10.8222 12.85 10.2167 12.55 9.65C12.25 9.08333 11.8667 8.57778 11.4 8.13333C10.5556 7.28889 9.53889 6.64444 8.35 6.2C7.16111 5.75556 5.96667 5.53333 4.76667 5.53333C4.07778 5.53333 3.55556 5.70556 3.2 6.05C2.84444 6.39444 2.66667 6.88889 2.66667 7.53333C2.66667 8.71111 2.85 9.86111 3.21667 10.9833C3.58333 12.1056 4.16667 13.1 4.96667 13.9667C5.45556 14.4778 6 14.9222 6.6 15.3C7.2 15.6778 7.85556 15.8667 8.56667 15.8667V15.8667M20.1333 8.26667L15.9 4.03333L24.4 0L25 5.86667L20.1333 8.26667V8.26667M24.2667 10.6667C23.8889 10.8444 23.4944 10.8944 23.0833 10.8167C22.6722 10.7389 22.3333 10.5444 22.0667 10.2333L21.6 9.73333L25.2333 8L25.3 8.66667C25.3667 9.08889 25.3056 9.48333 25.1167 9.85C24.9278 10.2167 24.6444 10.4889 24.2667 10.6667V10.6667M0 7.53333C0 6.06667 0.416667 4.92222 1.25 4.1C2.08333 3.27778 3.25556 2.86667 4.76667 2.86667C6.34444 2.86667 7.88889 3.16667 9.4 3.76667C10.9111 4.36667 12.2333 5.23333 13.3667 6.36667C14.0556 7.05556 14.6056 7.83333 15.0167 8.7C15.4278 9.56667 15.6333 10.4889 15.6333 11.4667C15.6333 12.1778 15.5278 12.8667 15.3167 13.5333C15.1056 14.2 14.7778 14.8111 14.3333 15.3667L23.9667 25L22.1 26.8667L12.4667 17.2333C11.8889 17.6556 11.2722 17.9833 10.6167 18.2167C9.96111 18.45 9.27778 18.5556 8.56667 18.5333C7.5 18.5111 6.49444 18.2556 5.55 17.7667C4.60556 17.2778 3.77778 16.6222 3.06667 15.8C2.06667 14.6667 1.30556 13.3889 0.783333 11.9667C0.261111 10.5444 0 9.06667 0 7.53333V7.53333M7.83333 10.7V10.7V10.7V10.7V10.7V10.7V10.7V10.7V10.7V10.7V10.7V10.7V10.7V10.7" fill="#003EC7"/>
</svg>
