<svg width="27" height="27" viewBox="0 0 27 27" fill="none" xmlns="http://www.w3.org/2000/svg">
<path d="M13.3333 26.6667C11.4889 26.6667 9.75556 26.3167 8.13333 25.6167C6.51111 24.9167 5.1 23.9667 3.9 22.7667C2.7 21.5667 1.75 20.1556 1.05 18.5333C0.35 16.9111 0 15.1778 0 13.3333C0 11.4889 0.35 9.75556 1.05 8.13333C1.75 6.51111 2.7 5.1 3.9 3.9C5.1 2.7 6.51111 1.75 8.13333 1.05C9.75556 0.35 11.4889 0 13.3333 0C15.1778 0 16.9111 0.35 18.5333 1.05C20.1556 1.75 21.5667 2.7 22.7667 3.9C23.9667 5.1 24.9167 6.51111 25.6167 8.13333C26.3167 9.75556 26.6667 11.4889 26.6667 13.3333C26.6667 15.1778 26.3167 16.9111 25.6167 18.5333C24.9167 20.1556 23.9667 21.5667 22.7667 22.7667C21.5667 23.9667 20.1556 24.9167 18.5333 25.6167C16.9111 26.3167 15.1778 26.6667 13.3333 26.6667ZM20 10L21.8 9.4L22.3333 7.6C21.6222 6.53333 20.7667 5.61667 19.7667 4.85C18.7667 4.08333 17.6667 3.51111 16.4667 3.13333L14.6667 4.4V6.26667L20 10ZM6.66667 10L12 6.26667V4.4L10.2 3.13333C9 3.51111 7.9 4.08333 6.9 4.85C5.9 5.61667 5.04444 6.53333 4.33333 7.6L4.86667 9.4L6.66667 10ZM5.26667 20.2667L6.8 20.1333L7.8 18.3333L5.86667 12.5333L4 11.8667L2.66667 12.8667C2.66667 14.3111 2.86667 15.6278 3.26667 16.8167C3.66667 18.0056 4.33333 19.1556 5.26667 20.2667ZM13.3333 24C13.9111 24 14.4778 23.9556 15.0333 23.8667C15.5889 23.7778 16.1333 23.6444 16.6667 23.4667L17.6 21.4667L16.7333 20H9.93333L9.06667 21.4667L10 23.4667C10.5333 23.6444 11.0778 23.7778 11.6333 23.8667C12.1889 23.9556 12.7556 24 13.3333 24ZM10.3333 17.3333H16.3333L18.2 12L13.3333 8.6L8.53333 12L10.3333 17.3333ZM21.4 20.2667C22.3333 19.1556 23 18.0056 23.4 16.8167C23.8 15.6278 24 14.3111 24 12.8667L22.6667 11.9333L20.8 12.5333L18.8667 18.3333L19.8667 20.1333L21.4 20.2667Z" fill="#003EC7"/>
</svg>
