<svg width="16" height="19" viewBox="0 0 16 19" fill="none" xmlns="http://www.w3.org/2000/svg">
<path d="M7.6 9.5C8.1225 9.5 8.56979 9.31396 8.94188 8.94188C9.31396 8.56979 9.5 8.1225 9.5 7.6C9.5 7.0775 9.31396 6.63021 8.94188 6.25813C8.56979 5.88604 8.1225 5.7 7.6 5.7C7.0775 5.7 6.63021 5.88604 6.25813 6.25813C5.88604 6.63021 5.7 7.0775 5.7 7.6C5.7 8.1225 5.88604 8.56979 6.25813 8.94188C6.63021 9.31396 7.0775 9.5 7.6 9.5ZM7.6 19C5.05083 16.8308 3.14687 14.816 1.88812 12.9556C0.629375 11.0952 0 9.37333 0 7.79C0 5.415 0.763958 3.52292 2.29187 2.11375C3.81979 0.704583 5.58917 0 7.6 0C9.61083 0 11.3802 0.704583 12.9081 2.11375C14.436 3.52292 15.2 5.415 15.2 7.79C15.2 9.37333 14.5706 11.0952 13.3119 12.9556C12.0531 14.816 10.1492 16.8308 7.6 19Z" fill="#003EC7"/>
</svg>
