<svg width="14" height="18" viewBox="0 0 14 18" fill="none" xmlns="http://www.w3.org/2000/svg">
<path d="M3 15C2.71667 15 2.47917 14.9042 2.2875 14.7125C2.09583 14.5208 2 14.2833 2 14C2 13.7167 2.09583 13.4792 2.2875 13.2875C2.47917 13.0958 2.71667 13 3 13C3.28333 13 3.52083 13.0958 3.7125 13.2875C3.90417 13.4792 4 13.7167 4 14C4 14.2833 3.90417 14.5208 3.7125 14.7125C3.52083 14.9042 3.28333 15 3 15ZM7 15C6.71667 15 6.47917 14.9042 6.2875 14.7125C6.09583 14.5208 6 14.2833 6 14C6 13.7167 6.09583 13.4792 6.2875 13.2875C6.47917 13.0958 6.71667 13 7 13C7.28333 13 7.52083 13.0958 7.7125 13.2875C7.90417 13.4792 8 13.7167 8 14C8 14.2833 7.90417 14.5208 7.7125 14.7125C7.52083 14.9042 7.28333 15 7 15ZM11 15C10.7167 15 10.4792 14.9042 10.2875 14.7125C10.0958 14.5208 10 14.2833 10 14C10 13.7167 10.0958 13.4792 10.2875 13.2875C10.4792 13.0958 10.7167 13 11 13C11.2833 13 11.5208 13.0958 11.7125 13.2875C11.9042 13.4792 12 13.7167 12 14C12 14.2833 11.9042 14.5208 11.7125 14.7125C11.5208 14.9042 11.2833 15 11 15ZM0 11V9C0 7.23333 0.566667 5.7 1.7 4.4C2.83333 3.1 4.26667 2.33333 6 2.1V0H8V2.1C9.73333 2.33333 11.1667 3.1 12.3 4.4C13.4333 5.7 14 7.23333 14 9V11H0ZM2 9H12C12 7.61667 11.5125 6.4375 10.5375 5.4625C9.5625 4.4875 8.38333 4 7 4C5.61667 4 4.4375 4.4875 3.4625 5.4625C2.4875 6.4375 2 7.61667 2 9ZM3 18C2.71667 18 2.47917 17.9042 2.2875 17.7125C2.09583 17.5208 2 17.2833 2 17C2 16.7167 2.09583 16.4792 2.2875 16.2875C2.47917 16.0958 2.71667 16 3 16C3.28333 16 3.52083 16.0958 3.7125 16.2875C3.90417 16.4792 4 16.7167 4 17C4 17.2833 3.90417 17.5208 3.7125 17.7125C3.52083 17.9042 3.28333 18 3 18ZM7 18C6.71667 18 6.47917 17.9042 6.2875 17.7125C6.09583 17.5208 6 17.2833 6 17C6 16.7167 6.09583 16.4792 6.2875 16.2875C6.47917 16.0958 6.71667 16 7 16C7.28333 16 7.52083 16.0958 7.7125 16.2875C7.90417 16.4792 8 16.7167 8 17C8 17.2833 7.90417 17.5208 7.7125 17.7125C7.52083 17.9042 7.28333 18 7 18ZM11 18C10.7167 18 10.4792 17.9042 10.2875 17.7125C10.0958 17.5208 10 17.2833 10 17C10 16.7167 10.0958 16.4792 10.2875 16.2875C10.4792 16.0958 10.7167 16 11 16C11.2833 16 11.5208 16.0958 11.7125 16.2875C11.9042 16.4792 12 16.7167 12 17C12 17.2833 11.9042 17.5208 11.7125 17.7125C11.5208 17.9042 11.2833 18 11 18Z" fill="#003EC7"/>
</svg>
