<svg width="27" height="30" viewBox="0 0 27 30" fill="none" xmlns="http://www.w3.org/2000/svg">
<path d="M1.9 25.4231L0 23.5565L5.46667 18.0898C6.15556 17.4009 6.62778 16.5398 6.88333 15.5065C7.13889 14.4731 7.26667 12.8898 7.26667 10.7565C7.26667 9.46758 7.55556 8.20091 8.13333 6.95647C8.71111 5.71203 9.53333 4.55647 10.6 3.4898C12.6222 1.46758 14.8556 0.323137 17.3 0.0564706C19.7444 -0.210196 21.7556 0.467582 23.3333 2.0898C24.9333 3.6898 25.6 5.71203 25.3333 8.15647C25.0667 10.6009 23.9333 12.8231 21.9333 14.8231C20.8667 15.8898 19.7111 16.712 18.4667 17.2898C17.2222 17.8676 15.9556 18.1565 14.6667 18.1565C12.5111 18.1565 10.9333 18.2787 9.93333 18.5231C8.93333 18.7676 8.07778 19.2454 7.36667 19.9565L1.9 25.4231ZM11.0667 14.2898C12.1111 15.312 13.5222 15.6898 15.3 15.4231C17.0778 15.1565 18.6667 14.3231 20.0667 12.9231C21.4889 11.5009 22.3389 9.90647 22.6167 8.1398C22.8944 6.37314 22.5111 4.9898 21.4667 3.9898C20.4 2.92314 19.0056 2.52314 17.2833 2.7898C15.5611 3.05647 13.9778 3.90092 12.5333 5.32314C11.1333 6.72314 10.2833 8.30647 9.98333 10.0731C9.68333 11.8398 10.0444 13.2454 11.0667 14.2898ZM21.3333 29.4231C19.8667 29.4231 18.6111 28.9009 17.5667 27.8565C16.5222 26.812 16 25.5565 16 24.0898C16 22.6231 16.5222 21.3676 17.5667 20.3231C18.6111 19.2787 19.8667 18.7565 21.3333 18.7565C22.8 18.7565 24.0556 19.2787 25.1 20.3231C26.1444 21.3676 26.6667 22.6231 26.6667 24.0898C26.6667 25.5565 26.1444 26.812 25.1 27.8565C24.0556 28.9009 22.8 29.4231 21.3333 29.4231ZM21.3333 26.7565C22.0667 26.7565 22.6944 26.4954 23.2167 25.9731C23.7389 25.4509 24 24.8231 24 24.0898C24 23.3565 23.7389 22.7287 23.2167 22.2065C22.6944 21.6842 22.0667 21.4231 21.3333 21.4231C20.6 21.4231 19.9722 21.6842 19.45 22.2065C18.9278 22.7287 18.6667 23.3565 18.6667 24.0898C18.6667 24.8231 18.9278 25.4509 19.45 25.9731C19.9722 26.4954 20.6 26.7565 21.3333 26.7565Z" fill="#003EC7"/>
</svg>
